<!DOCTYPE svg PUBLIC "-//W3C//DTD SVG 1.1//EN" "http://www.w3.org/Graphics/SVG/1.1/DTD/svg11.dtd">
<!-- Uploaded to: SVG Repo, www.svgrepo.com, Transformed by: SVG Repo Mixer Tools -->
<svg fill="#ffffff" width="800px" height="800px" viewBox="-3.36 -3.36 30.72 30.72" xmlns="http://www.w3.org/2000/svg" stroke="#ffffff" stroke-width="0.00024000000000000003">
<g id="SVGRepo_bgCarrier" stroke-width="0" transform="translate(2.76,2.76), scale(0.77)">
<rect x="-3.36" y="-3.36" width="30.72" height="30.72" rx="10.4448" fill="#000000" strokewidth="0"/>
</g>
<g id="SVGRepo_tracerCarrier" stroke-linecap="round" stroke-linejoin="round"/>
<g id="SVGRepo_iconCarrier"> <path d="M20 6h-3.155a.949.949 0 0 0-.064-.125l-1.7-2.124A1.989 1.989 0 0 0 13.519 3h-3.038a1.987 1.987 0 0 0-1.562.75l-1.7 2.125A.949.949 0 0 0 7.155 6H4a1 1 0 0 0 0 2h1v11a2 2 0 0 0 1.994 2h10.011A2 2 0 0 0 19 19V8h1a1 1 0 0 0 0-2zm-9.519-1h3.038l.8 1H9.681zm6.524 14H7V8h10z"/> <path d="M14 18a1 1 0 0 1-1-1v-7a1 1 0 0 1 2 0v7a1 1 0 0 1-1 1zM10 18a1 1 0 0 1-1-1v-7a1 1 0 0 1 2 0v7a1 1 0 0 1-1 1z"/> </g>
</svg>